<svg xmlns="http://www.w3.org/2000/svg" viewBox="0 0 933 802">
  <path d="M238 0c-8 0-15 5-22 9-12 6-24 11-35 18-7 4-12 11-13 18-6-6-16-4-21-1l-47 24c-7 4-13 12-15 20-5-7-15-5-21-2l-46 24c-6 3-11 9-14 15-3 5-4 12-3 17l2 53c-1 7 7 14 11 16-8 7-11 18-9 29l3 51c-1 6 7 11 10 13-8 7-11 18-9 29l3 50c1 8 10 15 18 12 7-2 14-7 21-10l34-19c7-4 11-11 13-18 7 6 16 3 23-1l44-24c6-4 11-11 13-18 6 5 16 2 20-1l22-11 1 17c-1 4 1 10 3 15 1 5 10 9 2 12-6 6-4 15-4 23l1 43a33 33 0 0017 29l45 27c5 4 14 2 18 0 2 10 9 18 18 22l45 27c5 4 13 2 17 0 3 10 11 18 20 23l15 9c-6 4-14 7-18 13-4 3 1 13-6 10-7-1-15 0-21 4 0 0-3 3-5 3l-41 25c-6 3-7 12-8 15-10-2-20 1-28 7l-43 25c-7 4-11 14-6 21 3 4 7 6 10 8l40 26c3 1 8 4 12 4h13c0 11 8 17 16 22l39 25c7 3 16 4 23 2-2 9 5 16 12 20l45 28c9 5 23 5 32-1l46-30c7-3 8-12 8-16 10 2 21-1 28-7l43-27c6-3 8-12 8-16 8 2 18 0 24-4l43-27c5-3 11-11 9-18-3-9-12-12-20-17l-38-22c-6-4-15-5-22-3 2-8-5-15-12-18l-42-25c-3-2-11-5-17-5-4 1-8 3-7-3-1-9-10-13-17-17-3-1-3-3 0-4 7-4 15-8 22-14 5-4 9-10 10-17 7 6 16 2 22-2l46-28c6-4 11-11 13-19 6 6 15 3 22-1l41-26a33 33 0 0017-30l1-54c0-6-6-11-9-14 7-7 10-17 10-27v-13l22 11c4 3 13 6 19 1 2 0 3 9 7 11 6 8 15 11 24 16l32 17c6 4 14 1 18-1 3 10 10 18 19 22l45 24c7 4 17 1 21-7 2-6 1-14 2-21l2-41c0-8-3-16-9-22 8-2 11-10 11-18l2-52c0-8-3-17-10-23 9-1 13-11 13-19l1-51c1-6-1-14-5-19-4-6-9-9-15-12l-43-23c-6-3-15-5-21 1-2-2-3-9-7-12-6-8-16-10-24-15l-31-16c-5-3-14-5-19 0-3 1-4-7-7-10-6-8-16-11-24-16L703 1c-8-3-18-1-21 7-4 9-2 18-3 26v39c0 8 3 16 9 21-8 3-11 12-11 20-11-6-22-13-34-18-7-3-15-4-22-2 2-8-5-14-12-17l-47-25c-7-4-16-5-23-3 1-8-6-13-12-16L482 8c-12-6-26-4-37 3l-44 25c-6 2-6 11-8 13-10-3-20 1-29 6l-45 25c-6 2-7 11-8 14-10-3-21 1-29 6l-26 14c0-8-3-17-11-20 8-7 10-18 9-28l-1-49c0-8-5-17-15-17z"/>
  <path fill="#fefefe" d="M254 662q-12-7 1-15l44-26q13-8 25 0l42 26q12 8 0 15l-44 27q-13 8-25 0"/>
  <path fill="#fefefe" d="M331 711q-12-8 1-15l44-27q12-8 24 0l44 27q12 7 0 15l-44 28q-13 7-25 0"/>
  <path fill="#fefefe" d="M410 761q-13-8 0-16l44-28q13-7 25 0l44 28q13 8 0 16l-44 28q-12 8-25 0"/>
  <path fill="#fefefe" d="M334 614q-12-7 0-14l44-26q12-8 24 0l42 26q12 7 0 14l-43 27q-12 7-25 0"/>
  <path fill="#fefefe" d="M411 662q-12-7 0-15l43-26q13-8 25 0l43 26q12 8 0 15l-43 27q-12 8-25 0"/>
  <path fill="#fefefe" d="M489 711q-12-8 0-15l44-27q12-8 24 0l44 27q13 7 1 15l-44 28q-12 7-25 0"/>
  <path fill="#fefefe" d="M426 545l-14 9c-8 4-8 9 0 14l42 26c9 5 17 5 25 0l42-26c8-5 8-10 0-14l-14-9-18 10-8 4c-10 4-20 3-29 0l-8-4z"/>
  <path fill="#fefefe" d="M489 614q-12-7 0-14l42-26q12-8 24 0l44 26q12 7 0 14l-42 27q-13 7-25 0"/>
  <path fill="#fefefe" d="M567 662q-12-7 0-15l42-26q12-8 25 0l44 26q13 8 1 15l-43 27q-12 8-25 0"/>

  <path fill="#ffff10" d="M409 54q-13-7 0-13l45-25q13-6 25 0l45 25q13 6 0 13l-45 25q-12 7-25 0"/>
  <path fill="#ffff10" d="M490 99q-13-7 0-14l45-25q12-7 25 0l46 25q13 7 1 14l-45 25q-13 7-26 0"/>
  <path fill="#ffff10" d="M573 144q-13-7-1-14l45-25q13-7 26 0l47 25q13 7 0 14l-45 26q-12 7-26 0"/>
  <path fill="#ffff10" d="M326 99q-12-7 1-14l46-25q13-7 25 0l45 25q13 7 0 14l-46 25q-13 7-26 0"/>
  <path fill="#ffff10" d="M408 144q-13-7 0-14l46-25q13-7 25 0l46 25q13 7 0 14l-46 26q-12 7-25 0"/>
  <path fill="#ffff10" d="M490 190q-13-7 0-14l46-26q13-7 26 0l47 26q13 7 0 14l-46 26q-13 8-26 0"/>
  <path fill="#ffff10" d="M243 144q-13-7 0-14l47-25q13-7 26 0l45 25q12 7-1 14l-46 26q-14 7-26 0"/>
  <path fill="#ffff10" d="M324 190q-13-7 0-14l47-26q13-7 26 0l46 26q13 7 0 14l-47 26q-13 8-26 0"/>
  <path fill="#ffff10" d="M406 237q-13-7 1-14l46-27q14-7 27 0l46 27q14 7 1 14l-47 27q-13 8-27 0"/>

  <path fill="#ce2828" d="M296 255q0 15-12 8l-45-26q-12-7-13-22l-1-54q0-15 12-8l45 26q13 7 13 23"/>
  <path fill="#ce2828" d="M378 303q0 15-13 7l-45-26q-13-7-13-23l-1-53q-1-16 12-8l46 26q13 7 13 23"/>
  <path fill="#ce2828" d="M461 351q0 15-13 8l-46-27q-13-8-14-23v-54q0-15 13-8l47 27q13 7 13 23"/>
  <path fill="#ce2828" d="M298 351q0 14-13 7l-44-26q-12-8-12-22l-2-53q0-15 12-7l45 26q12 7 13 22"/>
  <path fill="#ce2828" d="M379 398q0 15-13 8l-45-27q-13-8-13-22l-1-53q0-15 13-8l45 27q13 7 13 22"/>
  <path fill="#ce2828" d="M461 447q0 15-13 7l-46-27q-13-8-13-22v-53q0-15 13-8l46 27q13 8 13 23"/>
  <path fill="#ce2828" d="M299 444q0 14-12 7l-44-27q-12-7-12-21l-1-52q-1-14 12-7l44 26q12 8 12 22"/>
  <path fill="#ce2828" d="M379 492q1 15-12 7l-45-27q-12-7-12-22l-1-52q0-14 12-7l45 27q13 7 13 22"/>
  <path fill="#ce2828" d="M461 541q0 15-13 7l-45-27q-13-8-13-22v-52q-1-15 12-8l46 28q13 7 13 22"/>

  <path fill="#e9941f" d="M851 102q1-15 14-8l46 24q14 7 13 22l-2 52q-1 15-14 8l-46-24q-13-7-13-21"/>
  <path fill="#e9941f" d="M769 60q0-15 13-8l46 23q13 7 12 22l-2 52q0 15-13 8l-45-23q-13-7-13-22"/>
  <path fill="#e9941f" d="M688 19q1-15 13-9l45 23q13 7 12 22l-1 52q-1 14-13 8l-45-23q-12-7-12-21"/>
  <path fill="#e9941f" d="M848 196q0-14 13-8l46 25q13 6 13 21l-3 52q0 14-13 7l-46-24q-13-7-12-21"/>
  <path fill="#e9941f" d="M766 154q1-15 13-8l46 23q12 7 12 22l-2 51q0 15-13 8l-45-24q-13-7-12-21"/>
  <path fill="#e9941f" d="M693 102c-4 0-7 3-7 10v6l8 5c13 7 22 26 22 38v32l25 14c9 5 13 2 13-8l2-51c0-9-4-16-12-21l-45-23c-2-2-5-2-6-2z"/>
  <path fill="#e9941f" d="M844 288q1-14 14-7l45 24q13 7 13 22l-3 50q0 15-13 8l-46-25q-12-7-12-21"/>
  <path fill="#e9941f" d="M764 245q0-14 13-7l44 24q13 6 13 21l-2 50q-1 14-13 8l-45-24q-12-7-12-21"/>
  <path fill="#e9941f" d="M716 205l-1 10v1c0 9-4 17-10 23l2 1c4 2 5 5 6 8l1 9-1 27 26 13c8 5 12 2 13-7l1-50c1-9-3-16-12-21l-25-14z"/>

  <path fill="#5dc432" d="M545 309q-1 15-14 23l-46 27q-13 7-13-8v-54q0-16 13-23l47-27q13-7 13 8"/>
  <path fill="#5dc432" d="M626 261q0 16-13 23l-45 26q-13 8-13-7l1-54q0-16 13-23l46-26q13-8 12 8"/>
  <path fill="#5dc432" d="M707 215q-1 15-13 22l-45 26q-12 7-12-8l1-53q0-16 13-23l45-26q12-7 12 8"/>
  <path fill="#5dc432" d="M544 405q0 14-13 22l-46 27q-13 8-13-7v-53q0-15 13-23l46-27q13-7 13 8"/>
  <path fill="#5dc432" d="M625 357q0 14-13 22l-45 27q-13 7-13-8l1-53q0-15 13-22l45-27q13-7 13 8"/>
  <path fill="#5dc432" d="M704 310q0 14-12 22l-44 26q-13 7-13-7l1-53q1-15 13-22l45-26q12-8 12 7"/>
  <path fill="#5dc432" d="M543 499q0 14-13 22l-45 27q-13 8-13-7v-52q0-15 13-22l46-28q13-7 12 8"/>
  <path fill="#5dc432" d="M623 450q0 15-12 22l-45 27q-13 8-12-7v-52q0-15 13-22l45-27q12-7 12 7"/>
  <path fill="#5dc432" d="M702 403q0 14-12 21l-44 27q-12 7-12-7l1-52q0-14 12-22l44-26q13-7 12 7"/>

  <path fill="#3a77d9" d="M175 55q-1-15 12-22l45-23q12-6 13 9l1 52q0 14-12 21l-45 23q-12 6-13-8"/>
  <path fill="#3a77d9" d="M93 97q-1-15 12-22l46-23q13-7 13 8l2 52q0 15-13 22l-45 23q-13 7-13-8"/>
  <path fill="#3a77d9" d="M9 140q-1-15 13-22l46-24q13-7 14 8l2 53q0 14-13 21l-46 24q-13 7-14-8"/>
  <path fill="#3a77d9" d="M240 102l-6 2-45 23c-8 5-12 12-12 21l2 51c0 10 4 13 13 8l25-14v-32c1-17 5-25 15-33l7-5 8-5v-6c0-7-3-10-7-10z"/>
  <path fill="#3a77d9" d="M96 191q0-15 12-22l46-23q12-7 13 8l1 51q1 14-12 21l-45 24q-13 7-13-8 "/>
  <path fill="#3a77d9" d="M13 234q0-15 13-21l46-25q13-6 13 8l2 52q1 14-12 21l-46 24q-13 7-13-7"/>
  <path fill="#3a77d9" d="M217 205l-25 14c-9 5-13 12-12 21l1 50c1 9 5 12 13 7l25-13v-27l1-9c1-3 2-6 6-8l2-1c-6-6-10-14-10-23v-1l-1-10z"/>
  <path fill="#3a77d9" d="M99 283q0-15 13-21l44-24q13-7 13 7l2 51q0 14-12 21l-45 24q-12 6-13-8"/>
  <path fill="#3a77d9" d="M17 327q0-15 13-22l45-24q13-7 14 7l2 51q0 14-12 21l-46 25q-13 7-13-8"/>
</svg>
